<svg width="191" height="178" viewBox="0 0 191 178" fill="none" xmlns="http://www.w3.org/2000/svg">
<path d="M93.5685 27.5472C94.1195 27.165 94.774 26.9602 95.4445 26.9602C96.115 26.9602 96.7696 27.165 97.3205 27.5472L105.318 33.1752V0H85.571V33.1752L93.5685 27.5472Z" fill="#EEEEEE"/>
<path d="M111.9 0V39.4943C111.902 40.0986 111.737 40.6916 111.423 41.2083C111.11 41.725 110.66 42.1454 110.123 42.4234C109.655 42.6634 109.136 42.7876 108.609 42.7854C107.938 42.7839 107.284 42.5771 106.733 42.193L95.4445 34.2613L84.1557 42.193C83.6759 42.5177 83.119 42.7099 82.5411 42.7504C81.9632 42.7909 81.3849 42.6781 80.8645 42.4234C80.3095 42.1591 79.8395 41.7446 79.508 41.2269C79.1764 40.7092 78.9965 40.109 78.9885 39.4943V0H49.3679V85.5709H141.521V0H111.9Z" fill="#EEEEEE"/>
<path d="M44.2007 119.7C44.7516 119.318 45.4061 119.113 46.0766 119.113C46.7472 119.113 47.4017 119.318 47.9526 119.7L55.9502 125.328V92.1532H36.2031V125.328L44.2007 119.7Z" fill="#EEEEEE"/>
<path d="M62.5326 92.1532V131.647C62.5338 132.252 62.3687 132.845 62.0552 133.362C61.7417 133.878 61.2919 134.299 60.7553 134.577C60.2869 134.817 59.7677 134.941 59.2414 134.939C58.5703 134.937 57.9157 134.73 57.3654 134.346L46.0766 126.414L34.7879 134.346C34.3081 134.671 33.7511 134.863 33.1732 134.904C32.5953 134.944 32.017 134.831 31.4967 134.577C30.9416 134.312 30.4717 133.898 30.1401 133.38C29.8085 132.862 29.6286 132.262 29.6207 131.647V92.1532H0V177.724H92.1533V92.1532H62.5326Z" fill="#EEEEEE"/>
<path d="M142.936 119.7C143.487 119.318 144.142 119.113 144.812 119.113C145.483 119.113 146.137 119.318 146.688 119.7L154.686 125.328V92.1532H134.939V125.328L142.936 119.7Z" fill="#EEEEEE"/>
<path d="M161.268 92.1532V131.647C161.269 132.252 161.104 132.845 160.791 133.362C160.477 133.878 160.028 134.299 159.491 134.577C159.022 134.817 158.503 134.941 157.977 134.939C157.306 134.937 156.651 134.73 156.101 134.346L144.812 126.414L133.523 134.346C133.044 134.671 132.487 134.863 131.909 134.904C131.331 134.944 130.753 134.831 130.232 134.577C129.677 134.312 129.207 133.898 128.876 133.38C128.544 132.862 128.364 132.262 128.356 131.647V92.1532H98.7356V177.724H190.889V92.1532H161.268Z" fill="#EEEEEE"/>
</svg>
