<svg width="375" height="398" viewBox="0 0 375 398" fill="none" xmlns="http://www.w3.org/2000/svg">
<g filter="url(#filter0_d_9_629)">
<circle cx="188" cy="204" r="150" fill="#403E93"/>
<path d="M284.63 178.841C282.509 175.069 279.232 171.897 275.17 169.683C271.108 167.47 266.424 166.304 261.648 166.319H225.155V142.103C225.155 141.564 225.035 141.031 224.801 140.533C224.567 140.035 224.224 139.583 223.792 139.202C223.359 138.82 222.846 138.518 222.281 138.312C221.716 138.106 221.111 138 220.499 138H107.157C106.545 137.999 105.938 138.104 105.372 138.31C104.806 138.515 104.292 138.817 103.858 139.199C103.425 139.58 103.081 140.032 102.847 140.531C102.612 141.029 102.491 141.564 102.491 142.103C102.491 142.643 102.612 143.177 102.847 143.676C103.081 144.174 103.425 144.627 103.858 145.008C104.292 145.39 104.806 145.692 105.372 145.897C105.938 146.103 106.545 146.208 107.157 146.207H215.843V244.434H167.992C166.914 239.546 163.941 235.141 159.582 231.974C155.223 228.807 149.751 227.075 144.102 227.075C138.453 227.075 132.981 228.807 128.622 231.974C124.263 235.141 121.29 239.546 120.212 244.434H104.707C104.095 244.433 103.488 244.538 102.922 244.744C102.356 244.95 101.842 245.252 101.408 245.633C100.975 246.014 100.631 246.467 100.397 246.965C100.162 247.464 100.041 247.998 100.041 248.538C100.041 249.078 100.162 249.612 100.397 250.11C100.631 250.609 100.975 251.062 101.408 251.443C101.842 251.824 102.356 252.126 102.922 252.332C103.488 252.537 104.095 252.643 104.707 252.641H120.212C121.29 257.529 124.264 261.934 128.622 265.101C132.981 268.268 138.453 270 144.102 270C149.75 270 155.223 268.268 159.582 265.101C163.94 261.934 166.913 257.529 167.992 252.641H231.059C232.137 257.529 235.111 261.934 239.469 265.101C243.828 268.268 249.3 270 254.949 270C260.597 270 266.07 268.268 270.428 265.101C274.787 261.934 277.76 257.529 278.839 252.641H294.344C294.955 252.641 295.561 252.535 296.126 252.329C296.69 252.123 297.204 251.821 297.636 251.44C298.069 251.059 298.411 250.606 298.646 250.108C298.88 249.61 299 249.077 299 248.538V205.14C298.999 204.503 298.831 203.875 298.507 203.305L284.63 178.841ZM144.102 261.793C141.128 261.793 138.22 261.016 135.747 259.56C133.274 258.103 131.346 256.033 130.208 253.611C129.07 251.189 128.771 248.524 129.352 245.952C129.932 243.381 131.364 241.018 133.467 239.164C135.57 237.31 138.249 236.048 141.166 235.536C144.083 235.025 147.107 235.287 149.855 236.291C152.602 237.294 154.951 238.993 156.603 241.173C158.256 243.353 159.137 245.916 159.137 248.538C159.133 252.052 157.547 255.421 154.729 257.906C151.91 260.391 148.088 261.789 144.102 261.793ZM261.648 174.526C264.693 174.517 267.68 175.26 270.271 176.671C272.861 178.082 274.951 180.105 276.303 182.51L289.688 206.109V208.93H225.155V174.526H261.648ZM254.949 261.793C251.975 261.793 249.067 261.016 246.594 259.56C244.121 258.103 242.193 256.033 241.055 253.611C239.916 251.189 239.618 248.524 240.198 245.952C240.779 243.381 242.211 241.018 244.314 239.164C246.417 237.31 249.096 236.048 252.013 235.536C254.93 235.025 257.954 235.287 260.701 236.291C263.449 237.294 265.798 238.993 267.45 241.173C269.102 243.353 269.984 245.916 269.984 248.538C269.98 252.052 268.394 255.421 265.576 257.906C262.757 260.391 258.935 261.789 254.949 261.793ZM278.839 244.434C277.761 239.546 274.788 235.141 270.429 231.974C266.07 228.807 260.597 227.075 254.949 227.075C249.3 227.075 243.827 228.807 239.469 231.974C235.11 235.141 232.137 239.546 231.059 244.434H225.155V217.137H289.688V244.434H278.839ZM95.7631 169.306H162.384C162.996 169.305 163.603 169.41 164.169 169.615C164.735 169.821 165.249 170.123 165.683 170.504C166.116 170.885 166.46 171.338 166.694 171.837C166.929 172.335 167.05 172.87 167.05 173.409C167.05 173.949 166.929 174.483 166.694 174.982C166.46 175.48 166.116 175.933 165.683 176.314C165.249 176.695 164.735 176.997 164.169 177.203C163.603 177.409 162.996 177.514 162.384 177.513H95.7631C95.1509 177.514 94.5444 177.409 93.9784 177.203C93.4124 176.997 92.898 176.695 92.4646 176.314C92.0313 175.933 91.6874 175.48 91.4528 174.982C91.2182 174.483 91.0975 173.949 91.0975 173.409C91.0975 172.87 91.2182 172.335 91.4528 171.837C91.6874 171.338 92.0313 170.885 92.4646 170.504C92.898 170.123 93.4124 169.821 93.9784 169.615C94.5444 169.41 95.1509 169.305 95.7631 169.306ZM78 202.423C78 201.884 78.1205 201.351 78.3545 200.853C78.5885 200.355 78.9315 199.903 79.3639 199.521C79.7962 199.14 80.3095 198.838 80.8744 198.632C81.4393 198.426 82.0447 198.32 82.6561 198.32H140.333C140.946 198.319 141.552 198.424 142.118 198.63C142.684 198.835 143.199 199.137 143.632 199.518C144.065 199.9 144.409 200.352 144.644 200.851C144.878 201.349 144.999 201.884 144.999 202.423C144.999 202.963 144.878 203.497 144.644 203.996C144.409 204.494 144.065 204.947 143.632 205.328C143.199 205.709 142.684 206.012 142.118 206.217C141.552 206.423 140.946 206.528 140.333 206.527H82.6561C82.0447 206.527 81.4393 206.421 80.8744 206.215C80.3095 206.009 79.7962 205.706 79.3638 205.325C78.9315 204.944 78.5885 204.492 78.3545 203.994C78.1205 203.496 78 202.962 78 202.423Z" fill="white"/>
<path d="M44 258C30.3334 284 20.4 332.1 90 316.5" stroke="#FBB03F" stroke-width="1.5" stroke-linecap="round"/>
<path d="M90 316.5C122.667 310.167 203.4 275.8 265 189" stroke="#FBB03F" stroke-width="3" stroke-linecap="round"/>
<path d="M265 189C294.833 148.167 343.5 61 299.5 39C294.5 37.6667 282.6 37.8 275 49" stroke="#FBB03F" stroke-width="4" stroke-linecap="round"/>
</g>
<g clip-path="url(#clip0_9_629)">
<path d="M265.986 57.3991L272.057 50.0336C272.126 49.9489 272.173 49.8473 272.191 49.7391C272.209 49.6308 272.198 49.5198 272.16 49.417L268.899 40.7262C268.607 39.9192 267.476 39.8931 267.149 40.6865L257.564 63.9444C257.497 64.1054 257.477 64.2817 257.505 64.4536C257.533 64.6255 257.609 64.7862 257.723 64.9176C257.837 65.049 257.986 65.1459 258.152 65.1975C258.319 65.2491 258.496 65.2533 258.665 65.2097L283.023 58.9233C283.853 58.7089 283.983 57.5838 283.224 57.1848L275.066 52.7574C274.969 52.7048 274.86 52.6786 274.75 52.6815C274.641 52.6843 274.533 52.716 274.44 52.7734L266.308 57.7715C266.258 57.8018 266.198 57.8135 266.14 57.8044C266.082 57.7952 266.029 57.7659 265.99 57.7215C265.952 57.6772 265.93 57.6206 265.929 57.5618C265.928 57.503 265.948 57.4457 265.985 57.4L265.986 57.3991Z" fill="#FBB03F"/>
</g>
<defs>
<filter id="filter0_d_9_629" x="-6.55371" y="0.429199" width="384.554" height="397.571" filterUnits="userSpaceOnUse" color-interpolation-filters="sRGB">
<feFlood flood-opacity="0" result="BackgroundImageFix"/>
<feColorMatrix in="SourceAlpha" type="matrix" values="0 0 0 0 0 0 0 0 0 0 0 0 0 0 0 0 0 0 127 0" result="hardAlpha"/>
<feOffset dy="4"/>
<feGaussianBlur stdDeviation="20"/>
<feComposite in2="hardAlpha" operator="out"/>
<feColorMatrix type="matrix" values="0 0 0 0 0.25098 0 0 0 0 0.243137 0 0 0 0 0.576471 0 0 0 1 0"/>
<feBlend mode="normal" in2="BackgroundImageFix" result="effect1_dropShadow_9_629"/>
<feBlend mode="normal" in="SourceGraphic" in2="effect1_dropShadow_9_629" result="shape"/>
</filter>
<clipPath id="clip0_9_629">
<rect width="30" height="30" fill="white" transform="translate(288.078 58.3823) rotate(138.964)"/>
</clipPath>
</defs>
</svg>
