<svg width="25" height="24" viewBox="0 0 25 24" fill="none" xmlns="http://www.w3.org/2000/svg">
<path d="M17.1875 9.39999L7.8125 4.20999" stroke="#ACACAC" stroke-width="1.5" stroke-linecap="round" stroke-linejoin="round"/>
<path d="M21.875 16V7.99999C21.8746 7.64927 21.7782 7.3048 21.5954 7.00116C21.4125 6.69751 21.1497 6.44536 20.8333 6.26999L13.5417 2.26999C13.225 2.09446 12.8657 2.00204 12.5 2.00204C12.1343 2.00204 11.775 2.09446 11.4583 2.26999L4.16667 6.26999C3.85027 6.44536 3.58748 6.69751 3.40465 7.00116C3.22182 7.3048 3.12537 7.64927 3.125 7.99999V16C3.12537 16.3507 3.22182 16.6952 3.40465 16.9988C3.58748 17.3025 3.85027 17.5546 4.16667 17.73L11.4583 21.73C11.775 21.9055 12.1343 21.9979 12.5 21.9979C12.8657 21.9979 13.225 21.9055 13.5417 21.73L20.8333 17.73C21.1497 17.5546 21.4125 17.3025 21.5954 16.9988C21.7782 16.6952 21.8746 16.3507 21.875 16Z" stroke="#ACACAC" stroke-width="1.5" stroke-linecap="round" stroke-linejoin="round"/>
<path d="M3.40625 6.95999L12.5 12.01L21.5938 6.95999" stroke="#ACACAC" stroke-width="1.5" stroke-linecap="round" stroke-linejoin="round"/>
<path d="M12.5 22.08V12" stroke="#ACACAC" stroke-width="1.5" stroke-linecap="round" stroke-linejoin="round"/>
</svg>
