<svg width="221" height="132" viewBox="0 0 221 132" fill="none" xmlns="http://www.w3.org/2000/svg">
<path d="M206.63 40.8415C204.509 37.0694 201.232 33.8967 197.17 31.6833C193.108 29.4699 188.424 28.3045 183.648 28.3192L147.155 28.3192V4.10345C147.155 3.56449 147.035 3.03082 146.801 2.53291C146.567 2.035 146.224 1.5826 145.792 1.20155C145.359 0.820498 144.846 0.518264 144.281 0.312102C143.716 0.10594 143.111 -0.000108582 142.499 1.08242e-05L29.1569 1.08242e-05C28.5447 -0.00122867 27.9383 0.103996 27.3723 0.309658C26.8063 0.51532 26.2918 0.817383 25.8585 1.19855C25.4251 1.57971 25.0812 2.03249 24.8466 2.53096C24.612 3.02942 24.4913 3.56379 24.4913 4.10346C24.4913 4.64313 24.612 5.17749 24.8466 5.67596C25.0812 6.17443 25.4251 6.62721 25.8585 7.00837C26.2918 7.38953 26.8063 7.69159 27.3723 7.89726C27.9383 8.10292 28.5447 8.20814 29.1569 8.2069L137.843 8.2069V106.434L89.9916 106.434C88.9137 101.546 85.9406 97.1413 81.5819 93.974C77.2232 90.8068 71.7505 89.0747 66.1019 89.0747C60.4533 89.0747 54.9805 90.8068 50.6219 93.974C46.2632 97.1413 43.2901 101.546 42.2121 106.434H26.7068C26.0946 106.433 25.4882 106.538 24.9222 106.744C24.3562 106.95 23.8418 107.252 23.4084 107.633C22.975 108.014 22.6312 108.467 22.3966 108.965C22.162 109.464 22.0412 109.998 22.0412 110.538C22.0412 111.078 22.162 111.612 22.3966 112.11C22.6312 112.609 22.975 113.062 23.4084 113.443C23.8418 113.824 24.3562 114.126 24.9222 114.332C25.4882 114.537 26.0946 114.643 26.7068 114.641H42.2121C43.2904 119.529 46.2636 123.934 50.6222 127.101C54.9809 130.268 60.4534 132 66.1019 132C71.7503 132 77.2229 130.268 81.5815 127.101C85.9402 123.934 88.9134 119.529 89.9916 114.641L153.059 114.641C154.137 119.529 157.111 123.934 161.469 127.101C165.828 130.268 171.3 132 176.949 132C182.597 132 188.07 130.268 192.428 127.101C196.787 123.934 199.76 119.529 200.839 114.641H216.344C216.955 114.641 217.561 114.535 218.126 114.329C218.691 114.123 219.204 113.821 219.636 113.44C220.069 113.059 220.411 112.606 220.646 112.108C220.88 111.61 221 111.077 221 110.538V67.14C220.999 66.5029 220.831 65.8747 220.507 65.305L206.63 40.8415ZM66.1019 123.793C63.1277 123.793 60.2202 123.016 57.7471 121.56C55.274 120.103 53.3463 118.033 52.2079 115.611C51.0695 113.189 50.7715 110.524 51.3515 107.952C51.9316 105.381 53.3637 103.018 55.4666 101.164C57.5696 99.3105 60.2491 98.0479 63.1661 97.5363C66.0831 97.0247 69.1067 97.2872 71.8545 98.2906C74.6023 99.2939 76.9509 100.993 78.6032 103.173C80.2555 105.353 81.1374 107.916 81.1373 110.538C81.1328 114.052 79.5473 117.421 76.7286 119.906C73.91 122.391 70.0883 123.789 66.1019 123.793ZM183.648 36.5262C186.693 36.5168 189.68 37.2599 192.271 38.6711C194.861 40.0824 196.951 42.1053 198.303 44.5104L211.688 68.1092V70.9302H147.155V36.5262H183.648ZM176.949 123.793C173.975 123.793 171.067 123.016 168.594 121.56C166.121 120.103 164.193 118.033 163.055 115.611C161.916 113.189 161.618 110.524 162.198 107.952C162.779 105.381 164.211 103.018 166.314 101.164C168.417 99.3105 171.096 98.0479 174.013 97.5363C176.93 97.0247 179.954 97.2872 182.701 98.2906C185.449 99.2939 187.798 100.993 189.45 103.173C191.102 105.353 191.984 107.916 191.984 110.538C191.98 114.052 190.394 117.421 187.576 119.906C184.757 122.391 180.935 123.789 176.949 123.793ZM200.839 106.434C199.761 101.546 196.788 97.1413 192.429 93.974C188.07 90.8067 182.597 89.0746 176.949 89.0746C171.3 89.0746 165.827 90.8067 161.469 93.974C157.11 97.1413 154.137 101.546 153.059 106.434H147.155V79.1372H211.688V106.434H200.839ZM17.7631 31.3058L84.3842 31.3058C84.9964 31.3046 85.6028 31.4098 86.1688 31.6154C86.7348 31.8211 87.2492 32.1232 87.6826 32.5043C88.116 32.8855 88.4598 33.3383 88.6944 33.8367C88.929 34.3352 89.0498 34.8696 89.0498 35.4092C89.0498 35.9489 88.929 36.4833 88.6944 36.9817C88.4598 37.4802 88.116 37.933 87.6826 38.3142C87.2492 38.6953 86.7348 38.9974 86.1688 39.203C85.6028 39.4087 84.9964 39.5139 84.3842 39.5127L17.7631 39.5127C17.1509 39.5139 16.5444 39.4087 15.9784 39.203C15.4124 38.9974 14.898 38.6953 14.4646 38.3142C14.0313 37.933 13.6874 37.4802 13.4528 36.9817C13.2182 36.4833 13.0975 35.9489 13.0975 35.4092C13.0975 34.8696 13.2182 34.3352 13.4528 33.8367C13.6874 33.3383 14.0313 32.8855 14.4646 32.5043C14.898 32.1232 15.4124 31.8211 15.9784 31.6154C16.5444 31.4098 17.1509 31.3046 17.7631 31.3058ZM0 64.4234C2.57854e-05 63.8844 0.120487 63.3508 0.354502 62.8528C0.588517 62.3549 0.931503 61.9025 1.36387 61.5215C1.79624 61.1404 2.30953 60.8382 2.87441 60.6321C3.4393 60.4259 4.04472 60.3198 4.6561 60.32H62.3335C62.9457 60.3187 63.5521 60.424 64.1181 60.6296C64.6841 60.8353 65.1985 61.1373 65.6319 61.5185C66.0653 61.8997 66.4091 62.3524 66.6437 62.8509C66.8783 63.3494 66.9991 63.8837 66.9991 64.4234C66.9991 64.9631 66.8783 65.4975 66.6437 65.9959C66.4091 66.4944 66.0653 66.9472 65.6319 67.3283C65.1985 67.7095 64.6841 68.0116 64.1181 68.2172C63.5521 68.4229 62.9457 68.5281 62.3335 68.5269H4.6561C4.04471 68.527 3.43929 68.4209 2.87439 68.2148C2.3095 68.0086 1.79622 67.7064 1.36385 67.3253C0.931476 66.9443 0.58849 66.4919 0.354479 65.9939C0.120469 65.496 1.61104e-05 64.9623 0 64.4234Z" fill="#EEEEEE"/>
</svg>
